<mxfile host="app.diagrams.net" modified="2023-09-28T06:37:23.805Z" agent="5.0 (Macintosh; Intel Mac OS X 10_15_7) AppleWebKit/537.36 (KHTML, like Gecko) Chrome/117.0.0.0 Safari/537.36" version="20.6.0" etag="DQNRVpEHUHgQWn4q5VwC" type="github">
  <diagram id="PoK3F1p6nKMn0cuXe8Wo" name="第 1 页">
    <mxGraphModel dx="1404" dy="750" grid="1" gridSize="10" guides="1" tooltips="1" connect="1" arrows="1" fold="1" page="1" pageScale="1" pageWidth="827" pageHeight="1169" math="0" shadow="0">
      <root>
        <mxCell id="0" />
        <mxCell id="1" parent="0" />
        <mxCell id="71-gu7M_ObQ_4H5RjXKt-1" value="backend" style="swimlane;" vertex="1" parent="1">
          <mxGeometry x="270" y="270" width="200" height="200" as="geometry" />
        </mxCell>
        <mxCell id="71-gu7M_ObQ_4H5RjXKt-2" value="frontend" style="swimlane;" vertex="1" parent="1">
          <mxGeometry x="270" y="490" width="200" height="200" as="geometry" />
        </mxCell>
        <mxCell id="71-gu7M_ObQ_4H5RjXKt-7" value="Organization" style="swimlane;startSize=23;" vertex="1" parent="1">
          <mxGeometry x="10" y="130" width="200" height="510" as="geometry" />
        </mxCell>
        <mxCell id="71-gu7M_ObQ_4H5RjXKt-8" value="frontend-npm-dev-local" style="whiteSpace=wrap;html=1;" vertex="1" parent="1">
          <mxGeometry x="319" y="70" width="190" height="40" as="geometry" />
        </mxCell>
        <mxCell id="71-gu7M_ObQ_4H5RjXKt-11" value="frontend-npm-qa-local" style="whiteSpace=wrap;html=1;" vertex="1" parent="1">
          <mxGeometry x="535" y="70" width="190" height="40" as="geometry" />
        </mxCell>
        <mxCell id="71-gu7M_ObQ_4H5RjXKt-12" value="frontend-npm-staging-local" style="whiteSpace=wrap;html=1;" vertex="1" parent="1">
          <mxGeometry x="750" y="70" width="190" height="40" as="geometry" />
        </mxCell>
        <mxCell id="71-gu7M_ObQ_4H5RjXKt-14" value="frontend-npm-prod-local" style="whiteSpace=wrap;html=1;" vertex="1" parent="1">
          <mxGeometry x="970" y="70" width="190" height="40" as="geometry" />
        </mxCell>
      </root>
    </mxGraphModel>
  </diagram>
</mxfile>
